<?xml version="1.0" encoding="utf-8"?>
<!-- Generator: Adobe Illustrator 22.1.0, SVG Export Plug-In . SVG Version: 6.00 Build 0)  -->
<!DOCTYPE svg PUBLIC "-//W3C//DTD SVG 1.1//EN" "http://www.w3.org/Graphics/SVG/1.1/DTD/svg11.dtd" [
	<!ENTITY st0 "fill:none;stroke:#FFFFFF;strokeWidth:5;stroke-miterlimit:10;">
	<!ENTITY st1 "fill:#FFFFFF;">
]>
<svg version="1.1" id="Layer_1" xmlns="http://www.w3.org/2000/svg" xmlns:xlink="http://www.w3.org/1999/xlink" x="0px" y="0px"
	 viewBox="0 0 511.8 517.3" style="enable-background:new 0 0 511.8 517.3;" xml:space="preserve">
<circle style="&st0;" cx="255.2" cy="263.7" r="238.8"/>
<g>
	<path style="&st1;" d="M60.1,299.9l7.6-72.1h6.8l-7,67H88l-0.5,5.1H60.1z"/>
	<path style="&st1;" d="M110.8,300.8c-2.8,0-5.2-0.3-7.3-1c-2.1-0.7-3.7-1.7-5-3c-1.2-1.3-2.2-2.9-2.9-4.7s-1.1-3.9-1.2-6.1
		c0-0.6,0-1.2,0-1.9c0-1.7,0.1-3.5,0.3-5.4l3.1-29.9c0.3-3.4,1-6.4,1.9-8.9c0.9-2.5,2.2-4.8,3.8-6.8c1.6-2,3.7-3.4,6.2-4.5
		c2.5-1,5.5-1.5,8.9-1.5c2.8,0,5.1,0.3,7.2,1c2,0.7,3.7,1.6,5,2.9c1.3,1.3,2.3,2.8,3,4.5c0.7,1.8,1.2,3.8,1.3,6c0,0.7,0,1.5,0,2.3
		c0,1.6-0.1,3.2-0.2,5l-3.2,30c-0.3,3.4-1,6.4-1.8,9c-0.9,2.6-2.1,4.9-3.7,6.9c-1.6,2-3.7,3.6-6.2,4.6
		C117.2,300.3,114.2,300.8,110.8,300.8z M105.6,294.2c1.5,0.7,3.4,1.1,5.7,1.1c2.3,0,4.3-0.4,5.9-1.1c1.6-0.7,2.9-1.8,3.9-3.2
		c1-1.4,1.7-3,2.2-4.7s0.9-3.8,1.2-6.3l3.4-32.6c0.2-1.4,0.3-2.8,0.3-4c0-0.8,0-1.5-0.1-2.2c-0.2-1.9-0.6-3.4-1.3-4.7
		c-0.7-1.3-1.7-2.3-3.2-3c-1.5-0.7-3.4-1.1-5.7-1.1c-2.3,0-4.3,0.3-5.9,1s-2.9,1.7-3.9,3.1c-1,1.4-1.7,2.9-2.2,4.7
		c-0.5,1.7-0.9,3.8-1.2,6.2l-3.4,32.6c-0.2,1.4-0.3,2.8-0.3,4c0,0.8,0,1.5,0.1,2.2c0.2,1.9,0.6,3.4,1.3,4.8
		C103.1,292.4,104.2,293.5,105.6,294.2z"/>
	<path style="&st1;" d="M157.5,300.8c-2.8,0-5.2-0.3-7.3-1c-2.1-0.7-3.7-1.7-5-3c-1.2-1.3-2.2-2.9-2.9-4.7s-1.1-3.9-1.2-6.1
		c0-0.6,0-1.2,0-1.9c0-1.7,0.1-3.5,0.3-5.4l3.1-29.9c0.3-3.4,1-6.4,1.9-8.9c0.9-2.5,2.2-4.8,3.8-6.8c1.6-2,3.7-3.4,6.2-4.5
		c2.5-1,5.5-1.5,8.9-1.5c2.8,0,5.1,0.3,7.2,1c2,0.7,3.7,1.6,5,2.9c1.3,1.3,2.3,2.8,3,4.5c0.7,1.8,1.2,3.8,1.3,6c0,0.7,0,1.5,0,2.3
		c0,1.6-0.1,3.2-0.2,5l-3.2,30c-0.3,3.4-1,6.4-1.8,9c-0.9,2.6-2.1,4.9-3.7,6.9c-1.6,2-3.7,3.6-6.2,4.6
		C163.9,300.3,160.9,300.8,157.5,300.8z M152.3,294.2c1.5,0.7,3.4,1.1,5.7,1.1c2.3,0,4.3-0.4,5.9-1.1c1.6-0.7,2.9-1.8,3.9-3.2
		c1-1.4,1.7-3,2.2-4.7s0.9-3.8,1.2-6.3l3.4-32.6c0.2-1.4,0.3-2.8,0.3-4c0-0.8,0-1.5-0.1-2.2c-0.2-1.9-0.6-3.4-1.3-4.7
		c-0.7-1.3-1.7-2.3-3.2-3c-1.5-0.7-3.4-1.1-5.7-1.1c-2.3,0-4.3,0.3-5.9,1s-2.9,1.7-3.9,3.1c-1,1.4-1.7,2.9-2.2,4.7
		c-0.5,1.7-0.9,3.8-1.2,6.2l-3.4,32.6c-0.2,1.4-0.3,2.8-0.3,4c0,0.8,0,1.5,0.1,2.2c0.2,1.9,0.6,3.4,1.3,4.8
		C149.7,292.4,150.8,293.5,152.3,294.2z"/>
	<path style="&st1;" d="M187.1,299.9l7.6-72.1h6.8l-4,38l23.2-38h6.5l-18.1,30.9l13.7,41.1h-6.7l-12.4-37.5l-7,10.8l-2.8,26.8H187.1
		z"/>
	<path style="&st1;" d="M247.7,299.9l7.6-72.1h6.7l-7.6,72.1H247.7z"/>
	<path style="&st1;" d="M267.2,299.9l7.6-72.1h5l17.1,55.9l5.9-55.9h5.8l-7.6,72.1h-4.8L279,243.3l-6,56.6H267.2z"/>
	<path style="&st1;" d="M328.8,300.8c-5.7,0-9.9-1.7-12.4-5.1c-2.4-3.2-3.7-7.6-3.7-13.1c0-0.4,0-0.9,0-1.3l6.2-1.7
		c0,1.9,0.1,3.6,0.2,5.1c0.2,1.5,0.5,2.9,0.9,4.3s1,2.6,1.8,3.5c0.8,0.9,1.8,1.6,3,2.2c1.3,0.6,2.7,0.8,4.5,0.8
		c6.8,0,10.6-3.5,11.3-10.4c0.1-0.6,0.1-1.1,0.1-1.7c0-1.4-0.2-2.8-0.7-4.1c-0.6-1.8-1.4-3.4-2.4-4.8c-1-1.4-2.4-3-4.2-5L322,257
		c-2-2.2-3.4-4.4-4.3-6.8c-0.6-1.7-0.9-3.6-0.9-5.6c0-0.7,0-1.4,0.1-2.2c0.5-4.9,2.4-8.7,5.6-11.4s7.3-4.1,12.3-4.1
		c0.1,0,0.2,0,0.3,0c5.2,0,9.1,1.4,11.6,4.3c2.4,2.7,3.6,6.9,3.6,12.6c0,0.5,0,0.9,0,1.4l-5.9,1.5c0-0.4,0-0.7,0-1.1
		c0-4.3-0.7-7.6-2-9.9c-1.4-2.3-3.9-3.5-7.4-3.5c-0.2,0-0.3,0-0.5,0c-3.2,0.1-5.8,0.9-7.7,2.5c-2,1.6-3.1,3.9-3.5,7.1
		c-0.1,0.5-0.1,1-0.1,1.4c0,1.4,0.2,2.7,0.7,3.9c0.6,1.6,1.7,3.3,3.3,5.1l11.4,12c3,3.1,5.2,6.3,6.7,9.5c1.2,2.5,1.9,5.2,1.9,8.1
		c0,0.8,0,1.5-0.1,2.3c-0.6,5.2-2.5,9.3-5.8,12.1C337.9,299.3,333.8,300.8,328.8,300.8z"/>
	<path style="&st1;" d="M354.7,299.9l7.6-72.1h6.7l-7.6,72.1H354.7z"/>
	<path style="&st1;" d="M374.1,299.9l7.6-72.1h15.8c3.7,0,6.7,0.5,9.2,1.5c2.5,1,4.3,2.4,5.6,4.4c1.3,1.9,2.1,4.1,2.5,6.6
		c0.2,1.3,0.3,2.8,0.3,4.3c0,1.4-0.1,2.8-0.3,4.4l-3,28.6c-0.4,3.5-1,6.6-1.9,9.2c-0.9,2.6-2.2,5-3.8,7s-3.8,3.5-6.4,4.5
		c-2.6,1-5.7,1.5-9.2,1.5H374.1z M381.5,294.8h9c1.6,0,3-0.2,4.3-0.5c1.3-0.3,2.4-0.7,3.3-1.3c0.9-0.5,1.7-1.2,2.5-2.1
		s1.3-1.8,1.8-2.7c0.5-0.9,0.9-2.1,1.2-3.4c0.3-1.3,0.6-2.6,0.8-3.8s0.4-2.7,0.5-4.3l2.8-26.9c0.2-1.9,0.3-3.6,0.3-5.2
		c0-1.4-0.1-2.8-0.2-3.9c-0.3-2.5-1.4-4.4-3.1-5.6c-1.8-1.3-4.4-1.9-7.9-1.9H388L381.5,294.8z"/>
	<path style="&st1;" d="M420.5,299.9l7.6-72.1h26l-0.5,5.2h-19.3l-2.8,27h15.7l-0.5,5h-15.7l-3.1,29.7h19.5l-0.6,5.1H420.5z"/>
</g>
</svg>
