<?xml version="1.0" encoding="utf-8"?>
<!-- Generator: Adobe Illustrator 22.1.0, SVG Export Plug-In . SVG Version: 6.00 Build 0)  -->
<!DOCTYPE svg PUBLIC "-//W3C//DTD SVG 1.1//EN" "http://www.w3.org/Graphics/SVG/1.1/DTD/svg11.dtd" [
	<!ENTITY st0 "fill:#FFFFFF;">
]>
<svg version="1.1" id="Layer_1" xmlns="http://www.w3.org/2000/svg" xmlns:xlink="http://www.w3.org/1999/xlink" x="0px" y="0px"
	 viewBox="0 0 393.4 195.7" style="enable-background:new 0 0 393.4 195.7;" xml:space="preserve">
<g>
	<path style="&st0;" d="M109.4,17.8c-9.6-2.4-18.5-0.8-25.9,6.3c-0.8,0.7-1.6,1.4-3,2.5c0.4-3.1,0.7-5.5,1-7.9c-6.9,0-13.6,0-20.4,0
		c-2.2,12.6-4.4,25-6.6,37.3c-1.1,6-2.3,12-3.5,18c0,0.3,0,0.7,0,1c7.5,0,15.1,0,22.6,0c1.5-8.3,2.8-16.2,4.3-24
		c0.7-3.7,1.4-7.5,2.7-11c1.6-4.4,6.8-6.7,11.2-5.4c3.6,1,5,3.8,4.2,9c-0.8,5.7-1.9,11.4-2.8,17.1c-0.8,4.7-1.6,9.3-2.5,14.2
		c7.7,0,14.9,0,22.2,0c0.1-0.5,0.3-1,0.4-1.5c1.1-6,2.4-12,3.2-18.1c1.1-8.1,2.3-16.2,2.8-24.3C119.9,24.7,115.6,19.4,109.4,17.8z"
		/>
	<path style="&st0;" d="M174.6,19.3c-4.6-1.5-9.6-2.1-14.5-2.4c-9-0.4-17.6,1-24.9,7c-6.5,5.3-8.8,14.4-5.4,20.8
		c2.2,4,6.1,5.5,10.1,6.6c5,1.5,10.2,2.4,15.1,4c1.6,0.5,4,2.9,3.8,3.8c-0.5,1.9-2.2,4.2-4,4.9c-5.6,2.2-9.4,0-11.2-5.8H123
		c-1,8,3,14,11.4,16.6c3,0.9,6.1,1.4,9.2,1.9c2.3,0,5.9,0.1,8.2,0.1c2.9-0.4,5.9-0.7,8.7-1.3c8.1-1.6,15.2-4.9,19.5-12.4
		c5.2-9.1,2-17.8-7.8-21.5c-1.8-0.7-3.7-1.2-5.5-1.7c-4.6-1.3-9.4-2.3-13.9-3.9c-3.1-1.1-3.3-3.6-0.8-5.7c3.9-3.2,9.3-1.6,11.6,3.5
		h20C184.6,27.2,181.4,21.5,174.6,19.3z"/>
	<path style="&st0;" d="M314.1,20.7c-0.2-0.1-0.3-0.1-0.5-0.2c-5.5-3-11.5-3.9-17.4-3.7c-17.7-0.6-32.8,10.7-36.9,27.7
		c-2.7,11.1-0.6,20,5.8,25.6c0.2,0.2,0.4,0.3,0.6,0.5c0.2,0.1,0.4,0.3,0.5,0.4c0.2,0.2,0.5,0.4,0.7,0.5c1.3,1,2.8,1.8,4.4,2.5
		c0.3,0.1,0.6,0.2,0.9,0.4c0.2,0.1,0.4,0.2,0.6,0.2c1.2,0.4,2.4,0.8,3.7,1.1c2.2,0.6,4.6,0.8,6.9,1.1c0,0,0.1,0,0.1,0
		c0.1,0,0.2,0,0.3,0h0.2c0.8,0.1,1.5,0.1,2.2,0h0c0.7,0,1.4,0,2.1,0c0.7-0.1,1.5-0.2,2.2-0.3c8-0.8,15.4-2.9,21.3-7.8c0,0,0,0,0,0
		c4.3-3.2,7.4-7.7,9.3-13.2c0.3-0.7,0.6-1.3,1-2h-22.8c0,0,0,0,0,0h-0.2c-0.9,1.4-1.6,3-2.6,4.3c-2.6,3.3-6.2,4.4-10.2,3.5
		c-0.4-0.1-0.7-0.2-1.1-0.3c-2.9-1.4-4.4-4.6-4.3-9c0-1,0-2,0.2-3.1c0.8-5.9,2.1-11.7,7-15.6c1.2-1,2.6-1.6,4-1.8
		c0.8-0.1,1.6-0.2,2.5-0.1c0.1,0,0.2,0,0.3,0c1.9,0.2,3.5,1.1,4.7,2.5c0.9,1.4,1.4,3.2,1.6,5.1h0.1c0,0,0,0.1,0,0.2h22.3
		c0-0.1,0-0.1,0-0.2h0.1C324.9,31.8,321.1,23.6,314.1,20.7z"/>
	<path style="&st0;" d="M244,20.7c-7.6-4.3-15.9-4.8-24.2-3.4c-18.6,3-29.1,14.2-31.6,32.9c-1.6,11.5,4.1,20.9,15.1,24.5
		c3.2,1.1,6.7,1.4,10.1,2c1.5,0,3,0.1,4.5,0.1c0.7-0.1,1.5-0.2,2.2-0.3c10.7-1,20.2-4.5,26.7-13.6c1.9-2.7,3.2-6,4.9-9.3H229
		c-0.6,1.2-1.2,2.4-1.9,3.5c-2.4,3.8-7.1,5.6-11.3,4.4c-3.5-1.1-5.4-4.5-5.2-9.4c0-1,0-2.1,0.2-3.1c0.8-5.9,2.1-11.6,7-15.6
		c4.9-3.9,11.7-1.9,12.8,3.6c0.1,0.7,0.2,1.4,0.3,2.2h22.3C254.4,31.6,250.9,24.6,244,20.7z"/>
</g>
<g id="_x32_WTafI.tif">
	<g>
		<path style="&st0;" d="M48.7,50.9c1.2,1.9,1.7,2.6,2,3.3c0.2,0.4,0.3,0.9,0.5,1.5c-0.3,0.4-0.6,0.8-0.9,1.1
			c-5,4.2-10.5,7.8-14.8,12.5c-10.8,12.2-10,24.7,1.3,36.4c10.4,10.7,23.3,17,37,22.1c28.3,10.7,57.8,15.2,87.8,17.1
			c1.1,0.1,2.3-0.1,4-0.2c0-5.2,0-10.2,0-16.8c13,9.8,25,18.8,37.6,28.3c-12.3,9.3-24.2,18.4-37.1,28.2c0-6.3,0-11.7,0-17.5
			c-8.3-0.8-16-1.4-23.7-2.3c-34.1-4-67.4-10.9-97.2-29.1c-7.1-4.4-13.9-9.9-19.5-16.1c-14.2-15.9-13.5-35.3,1.4-50.6
			C33.5,62.3,41.1,57.1,48.7,50.9z"/>
		<path style="&st0;" d="M208.4,166.4c0-7.3,0-14,0-20.8c11.7-1.2,23.3-2.1,34.8-3.8c27.9-4.1,55.3-10.1,79.8-25
			c6-3.7,11.6-8.4,16.4-13.6c9.1-10,9.3-21.7,0.6-32.1c-4.7-5.7-10.8-10.3-16.8-15.9c0.1-0.3,0.6-1.6,1.1-2.8c0.5,0,0.9-0.2,1.1,0
			c7.4,5.6,15.6,10.5,21.9,17.1c15.6,16.3,14.7,36.7-1.6,53.3c-12.6,12.7-28.3,20.3-44.7,26.4c-28.9,10.8-59.1,15.3-89.8,17.4
			C210.4,166.6,209.6,166.5,208.4,166.4z"/>
	</g>
</g>
<g>
	<path style="&st0;" d="M123.3,124.6v-6.6h24.4c2.1,0,3.8-0.4,5.1-1.3c1.3-0.8,2-2.1,2-3.8c0-1.6-0.5-2.8-1.5-3.6
		c-1-0.8-2.4-1.3-4.3-1.3h-16.8v-5.6h16.3c1.9,0,3.3-0.3,4.2-1c0.9-0.7,1.4-1.9,1.4-3.6c0-1.8-0.6-3-1.8-3.7c-1.2-0.7-2.9-1-5.1-1
		h-23.8v-6.6h25.1c1.8,0,3.5,0.2,5,0.6c1.5,0.4,2.8,1,3.9,1.9c1.1,0.8,1.9,1.8,2.5,3.1c0.6,1.2,0.9,2.7,0.9,4.3
		c0,2.4-0.5,4.2-1.5,5.5c-1,1.3-2.3,2.1-3.7,2.6c1.7,0.6,3.2,1.6,4.3,3c1.1,1.5,1.7,3.3,1.7,5.5c0,1.7-0.3,3.3-0.9,4.7
		c-0.6,1.4-1.4,2.6-2.5,3.6c-1.1,1-2.4,1.8-3.9,2.3c-1.5,0.6-3.2,0.8-5,0.8H123.3z"/>
	<path style="&st0;" d="M183.5,124.6c-2.7,0-5.1-0.4-7.2-1.2c-2.1-0.8-3.9-2-5.4-3.6c-1.5-1.6-2.6-3.6-3.4-6.1
		c-0.8-2.4-1.2-5.3-1.2-8.5c0-3.2,0.4-6,1.2-8.4c0.8-2.3,1.9-4.3,3.4-5.8c1.5-1.5,3.3-2.6,5.4-3.4c2.1-0.7,4.5-1.1,7.2-1.1h21.8v6.6
		h-21.8c-3,0-5.4,0.7-7.2,2.2c-1.8,1.4-2.8,3.8-3.3,7h22.3c3.6,0,6.5,0.9,8.5,2.6c2,1.7,3.1,4.4,3.1,8c0,3.7-1,6.5-3.1,8.5
		c-2.1,2-4.9,3-8.5,3H183.5z M173,108.1c0.3,3.4,1.4,6,3.2,7.5s4.2,2.4,7.3,2.4h11.2c1.9,0,3.3-0.4,4.3-1.3c1-0.9,1.5-2.2,1.5-3.8
		c0-3.1-1.9-4.7-5.8-4.7H173z"/>
	<path style="&st0;" d="M231.6,125c-2.8,0-5.4-0.5-7.8-1.5c-2.4-1-4.5-2.4-6.2-4.2c-1.8-1.8-3.1-3.9-4.2-6.3c-1-2.4-1.5-5-1.5-7.8
		c0-2.8,0.5-5.3,1.5-7.7c1-2.3,2.4-4.3,4.2-6c1.8-1.7,3.8-3,6.2-3.9c2.4-0.9,5-1.4,7.8-1.4c2.8,0,5.3,0.5,7.7,1.4
		c2.4,0.9,4.5,2.3,6.3,3.9c1.8,1.7,3.2,3.7,4.2,6c1,2.3,1.5,4.9,1.5,7.7c0,2.8-0.5,5.4-1.5,7.8c-1,2.4-2.4,4.5-4.2,6.3
		c-1.8,1.8-3.9,3.2-6.3,4.2C236.9,124.5,234.3,125,231.6,125z M244.6,105.5c0-1.8-0.3-3.5-0.9-5.1c-0.6-1.6-1.4-2.9-2.5-4
		c-1.1-1.1-2.5-2-4.1-2.6c-1.6-0.6-3.5-1-5.5-1c-2.1,0-3.9,0.3-5.6,1c-1.6,0.6-3,1.5-4.1,2.6c-1.1,1.1-2,2.5-2.5,4
		c-0.6,1.6-0.9,3.3-0.9,5.1c0,1.8,0.3,3.6,0.9,5.1c0.6,1.6,1.4,2.9,2.5,4.1c1.1,1.1,2.5,2.1,4.1,2.7c1.6,0.7,3.4,1,5.5,1
		c2.1,0,3.9-0.3,5.6-1c1.6-0.7,3-1.6,4.1-2.7c1.1-1.1,2-2.5,2.5-4.1C244.3,109,244.6,107.3,244.6,105.5z"/>
	<path style="&st0;" d="M270.1,93.3c0,4.8-2.4,7.2-7.3,7.2c-4.8,0-7.2-2.4-7.2-7.2c0-4.8,2.4-7.2,7.2-7.2
		C267.7,86.1,270.1,88.5,270.1,93.3z M267.2,93.4c0-2.9-1.4-4.3-4.3-4.3c-1.4,0-2.5,0.3-3.2,1c-0.7,0.7-1.1,1.8-1.1,3.2
		c0,2.8,1.4,4.2,4.3,4.2C265.7,97.5,267.2,96.1,267.2,93.4z"/>
</g>
</svg>
